<?xml version="1.0" encoding="UTF-8" standalone="no"?>
<!-- Created with Pixodesk SVG (https://pixodesk.com) -->
<svg xmlns="http://www.w3.org/2000/svg" viewBox="0 0 200 200" text-rendering="geometricPrecision" shape-rendering="geometricPrecision" fill="none" stroke-width="6">
  <path fill="none" stroke="#6e6e6e" stroke-width="4" transform="translate(0, -8)" d="M47.1794,90.4056C50.0128,89.0011,54.5632,88.2909,57.4778,87.2829C65.4179,84.5368,73.0973,81.366,81.1627,78.9421C81.4026,78.87,89.361,77.1708,89.433,76.0275C89.4613,75.578,87.9802,73.8982,87.8033,73.6513C85.8926,70.9833,84.1702,68.8422,81.7268,66.5909C75.5431,60.8936,70.2235,54.1881,65.7761,47.1033C65.1714,46.1401,61.274,41.938,61.552,40.6463C61.7503,39.7246,64.6803,38.6479,65.3407,38.3506C69.2129,36.6077,72.5741,34.0133,76.3118,32.1152C81.5963,29.4315,90.7425,35.506,95.4916,38.0003C107.5728,44.3456,120.0998,49.8329,131.7537,57.0021C135.1374,59.0837,137.939,62.9628,141.5148,64.5942C142.8183,65.1888,144.0827,64.0136,145.1748,63.5622C148.4093,62.2252,151.7556,61.0326,155.0255,59.7421C159.1886,58.0991,164.1649,55.2325,168.44,54.223C177.7996,52.0128,186.8537,54.7483,192.5412,62.4183C194.0934,64.5116,196.6941,65.825,196.9645,68.562C197.567,74.6594,192.1811,79.681,187.6433,83.0744C176.0803,91.7212,161.8101,97.6076,148.5573,103.0489C143.5796,105.0926,138.5821,107.5756,133.4382,109.1668C115.5767,114.692,95.9789,112.5051,77.9817,117.4147C68.2631,120.066,58.413,126.2128,48.2707,127.2497C42.816,127.8074,36.2175,126.0883,31.2825,123.7789C22.4368,119.6395,17.9695,107.5191,14.8124,99.1538C13.5911,95.9178,11.5159,92.2486,12.0926,88.6752C12.2814,87.5051,14.9842,85.9407,16.113,85.2592C20.4232,82.6572,26.459,78.6496,31.8275,80.3165C33.5533,80.8524,35.9596,83.1181,37.4653,84.1254C40.6674,86.2675,44.103,87.867,47.2332,90.0844L47.1794,90.4056z"/>
  <path fill="none" stroke="#6e6e6e" stroke-width="4" transform="translate(0, -8)" d="M106.3574,116.2574C103.9191,122.4806,102.8368,129.4646,101.0946,135.9151C100.3198,138.784,98.436,142.5417,99.0005,145.6382C99.0691,146.0144,99.768,145.5928,100.1477,145.6382C102.6021,145.9318,105.0386,146.3415,107.5002,146.6097C110.3689,146.9223,113.8048,147.4948,116.7756,147.3529C117.7888,147.3046,118.4727,146.2395,119.351,145.7322C122.9017,143.6815,126.8584,142.2784,130.0524,139.6221C136.709,134.0861,140.5506,124.802,144.726,117.4416C147.62,112.34,151.6352,107.6745,154.2174,102.4355"/>
  <path fill="none" stroke="#6e6e6e" stroke-width="4" transform="translate(0, -8)" d="M12.6287,55.6601C6.1313,60.0111,-1.4695,64.7066,-6.7313,70.5106"/>
  <path fill="none" stroke="#6e6e6e" stroke-width="4" transform="translate(0, -8)" d="M11.918,119.2111C9.9571,120.6593,6.8641,121.4852,4.8845,122.6182C0.6891,125.0193,-3.5043,128.1697,-7.3536,131.1224"/>
  <path fill="none" stroke="#6e6e6e" stroke-width="4" transform="translate(0, -8)" d="M68.8776,151.4909C66.6313,152.8636,62.8137,152.8062,60.4708,153.3343C53.6177,154.8791,50.0075,156.4929,43.0124,159.6257C32.6401,164.271,23.287,170.7598,13.9439,177.1177C10.6861,179.3345,6.9611,180.839,3.7641,183.0811"/>
  <path fill="none" stroke="#6e6e6e" stroke-width="4" transform="translate(0, -8)" d="M15.3732,196.7978C24.5756,194.4972,35.1606,195.27,44.5189,195.27C57.2933,195.27,70.0597,195.3534,82.8315,195.4692C120.2974,195.8088,157.7465,194.651,195.1659,194.651"/>
</svg>