<?xml version="1.0" encoding="UTF-8" standalone="no"?>
<!-- Created with Pixodesk SVG (https://pixodesk.com) -->
<svg xmlns="http://www.w3.org/2000/svg" viewBox="0 0 200 200" text-rendering="geometricPrecision" shape-rendering="geometricPrecision" fill="none" stroke="#727272" stroke-width="4">
  <path fill="none" stroke="#505050" transform="translate(20, 13)" d="M7.4711,117.6531C7.4711,119.7152,7.198,121.5703,6.8846,123.6132C5.9116,129.9573,5.7303,136.0616,7.6446,142.0957C7.933,143.0046,7.6054,144.6772,8.099,145.3315C9.2183,146.8151,16.7013,147.2878,18.356,146.5C19.0699,146.1602,21.2571,143.098,21.3926,142.9117C25.0611,137.8653,25.1857,130.9858,25.5876,124.9653C25.6757,123.6465,26.5556,118.3391,25.657,117.1909C25.5609,117.068,21.5015,117.2492,21.1049,117.2244C15.6212,116.8825,10.1831,118.6078,4.7065,118.6078L7.4711,117.6531z"/>
  <path fill="none" stroke="#505050" transform="translate(20, 13)" d="M22.7189,145.9281C26.4778,155.364,31.8376,163.3907,37.5817,171.7049C40.8343,176.4128,43.0622,181.271,47.5421,184.9559C48.9798,186.1385,50.2267,185.8787,51.9005,185.3286C56.4661,183.8281,60.6584,184.1062,60.0857,178.228C60.01,177.4503,59.8204,176.4507,59.4478,175.7186C56.3474,169.6274,50.5284,166.4619,47.1089,160.8401"/>
  <path fill="none" stroke="#505050" transform="translate(20, 13)" d="M62.9712,179.7009C67.2298,176.5161,67.3384,170.3215,65.0777,165.6765C60.8072,156.9023,50.3218,153.8979,44.6241,146.3109"/>
  <path fill="none" stroke="#505050" transform="translate(20, 13)" d="M70.1603,173.1431C75.6432,173.1431,83.3867,169.2454,79.4603,162.5873C77.0884,158.5653,72.8407,156.13,69.3219,153.2962C63.9564,148.9752,58.2311,143.8848,54.0585,138.3921"/>
  <path fill="none" stroke="#505050" transform="translate(20, 13)" d="M83.3811,166.3559C84.864,165.0159,85.7023,164.0277,86.7937,162.4082C92.7588,153.5566,84.1662,149.8471,78.9555,143.6952C75.9844,140.1874,71.8345,133.444,67.3543,132.2428"/>
  <path fill="none" stroke="#505050" transform="translate(20, 13)" d="M72.0239,128.219C67.1744,130.1191,62.4401,131.7678,57.3424,133.2154C55.0518,133.8659,52.3443,135.7324,49.8903,135.0902C37.1821,131.7645,44.3854,116.5234,52.8676,112.3388C58.1136,109.7507,63.9573,110.6803,69.6006,110.2962C81.909,109.4584,94.1968,109.9632,106.4772,110.285C110.3122,110.3854,114.3299,109.571,118.1075,110.5245"/>
  <path fill="none" stroke="#505050" transform="translate(20, 13)" d="M91.873,164.9199C96.0922,163.6375,100.0554,159.5434,103.3836,156.841C108.1101,153.003,112.9308,149.8447,118.0561,146.6982"/>
  <path fill="none" stroke="#505050" transform="translate(20, 13)" d="M113.7334,104.8308C113.7334,112.4729,116.0889,119.461,117.9889,126.7651C120.1149,134.938,123.0656,144.7451,128.3253,151.6755"/>
  <path fill="none" stroke="#505050" transform="translate(20, 13)" d="M118.3124,102.6795C125.2498,97.252,134.5287,98.8882,142.7438,98.517C146.7377,98.3365,148.0804,98.0467,152.0393,97.4637C152.9278,97.3329,154.8251,96.2712,154.7166,97.1626C154.4376,99.4555,151.973,102.9857,151.0689,105.077C148.6888,110.5823,146.2767,115.8773,145.796,121.9612C145.2557,128.7999,145.6654,136.0601,146.4889,142.8411C146.5221,143.1146,148.2767,150.5466,147.2399,151.4215C146.9321,151.6811,143.4003,151.3877,142.7091,151.5032C138.7064,152.172,135.2856,154.2875,131.2981,154.8364"/>
  <path fill="none" stroke="#505050" transform="translate(20, 13)" d="M27.7075,120.0282C34.2281,117.7537,39.2121,118.0474,45.8061,118.6179"/>
  <path fill="none" stroke="#505050" transform="translate(1, 7)" d="M71.9052,17.671C66.2832,21.4357,59.0493,24.895,56.7492,32.0346C54.0511,40.4097,53.653,54.1696,60.1171,61.299C67.1539,69.0602,82.0206,70.9627,91.7085,69.7562C95.1368,69.3293,98.8355,68.9643,101.8266,67.0342C118.5826,56.2217,119.9591,32.7392,105.6165,19.2145C103.2025,16.9381,98.8897,15.5412,95.7513,14.9333C86.6353,13.1677,74.5599,12.2591,67.8154,19.7831L71.9052,17.671z"/>
  <path fill="none" stroke="#505050" transform="translate(1, 7)" d="M77.6504,76.2816C85.2606,75.043,92.3461,73.5673,100.1377,73.5673C101.6676,73.5673,105.1116,72.8957,106.4918,73.5181C106.6021,73.5679,106.2841,75.8906,105.7083,75.9883C102.8236,76.4779,99.9396,76.4562,97.0183,76.4562C92.576,76.4562,88.0948,76.2819,83.6609,76.6061C81.9794,76.7291,80.2429,77.8252,78.6567,77.9157C78.4502,77.9275,77.4868,75.5102,77.3717,75.3L77.6504,76.2816z"/>
  <path fill="none" stroke="#505050" transform="translate(1, 7)" d="M80.4117,83.193C83.7796,81.6062,87.8784,82.2887,91.4891,82.2887C96.5711,82.2887,101.0793,82.3075,106.0295,81.3686"/>
  <path fill="none" stroke="#505050" transform="translate(1, 7)" d="M83.5758,92.0118C90.2813,87.147,99.7077,85.7739,107.808,87.0803"/>
  <path fill="none" stroke="#505050" transform="translate(1, 7)" d="M86.5811,95.721C94.3279,95.721,102.1911,94.7081,110.0186,94.7081"/>
  <path fill="none" stroke="#505050" transform="translate(1, 7)" d="M59.4701,77.9649C56.4597,79.651,52.5219,78.8611,49.277,79.7211"/>
  <path fill="none" stroke="#505050" transform="translate(1, 7)" d="M48.1006,69.7663C45.2671,67.5625,41.2543,67.8235,37.9029,66.9066"/>
  <path fill="none" stroke="#505050" transform="translate(1, 7)" d="M40.4571,50.5384C37.3562,50.0353,35.8857,46.837,33.6699,45.0092"/>
  <path fill="none" stroke="#505050" transform="translate(1, 7)" d="M46.274,26.0879C43.2337,24.2389,40.2031,22.0711,37.0064,20.5184"/>
  <path fill="none" stroke="#505050" transform="translate(1, 7)" d="M65.494,7.1443C64.805,3.7047,64.0555,0.3301,63.0596,-3.0433"/>
  <path fill="none" stroke="#505050" transform="translate(1, 7)" d="M113.0137,12.3366C115.8453,8.4928,118.5244,4.5179,121.1072,0.4992"/>
  <path fill="none" stroke="#505050" transform="translate(1, 7)" d="M124.5926,28.4742C127.192,26.1433,129.751,23.5877,132.7498,21.762"/>
  <path fill="none" stroke="#505050" transform="translate(1, 7)" d="M121.6825,52.0371C124.058,49.7884,128.9987,50.5787,131.8533,51.1506"/>
</svg>