<?xml version="1.0" encoding="UTF-8" standalone="no"?>
<!-- Created with Pixodesk SVG (https://pixodesk.com) -->
<svg xmlns="http://www.w3.org/2000/svg" viewBox="0 0 200 200" text-rendering="geometricPrecision" shape-rendering="geometricPrecision" fill="none" stroke="#727272" stroke-width="4">
  <path fill="none" stroke="#969696" transform="translate(5, 15)" d="M-8.8801,119.8853C-10.9608,122.6694,-14.209,126.8737,-13.8833,131.7717C-13.5666,136.5358,-10.4699,139.0132,-8.0962,141.1021C-2.948,145.6325,5.2026,149.8311,11.1944,147.5572C17.4567,145.1807,22.3554,133.4744,15.8208,125.9929C9.8948,119.2082,0.5967,118.6698,-6.3634,120.7314L-8.8801,119.8853z"/>
  <path fill="none" stroke="#969696" transform="translate(0, 13)" d="M11.8904,151.1522C19.1847,158.0947,21.7027,167.0287,20.0277,174.5018C19.3062,177.7207,20.5447,180.6146,20.5447,183.8164C20.5447,184.315,19.5754,186.5594,21.0203,186.5594"/>
  <path fill="none" stroke="#969696" transform="translate(0, 17)" d="M32.7977,128.2751C30.8147,123.2378,38.2324,116.7759,42.3931,115.2637C46.679,113.7059,49.7795,115.1542,53.6074,117.0186C59.2532,119.7684,62.7996,122.405,62.2102,128.9595C61.7221,134.388,56.9904,140.4371,53.4571,144.4206C52.3489,145.6701,50.4579,148.3417,48.5532,148.6017C46.6375,148.8633,43.9572,146.4471,42.4088,145.622C35.2699,141.8181,29.1495,137.2873,30.0768,128.394L32.7977,128.2751z"/>
  <path fill="none" stroke="#969696" transform="translate(0, 13)" d="M36.1012,146.6615C36.1012,159.0772,30.1717,172.4338,33.3214,184.8967"/>
  <path fill="none" stroke="#969696" transform="translate(0, 13)" d="M56.3967,148.77C57.6556,155.1163,61.4656,160.7843,63.8084,166.7597C66.3426,173.2229,67.2838,179.9954,69.5833,186.4731"/>
  <path fill="none" stroke="#969696" transform="translate(0, 13)" d="M89.1436,120.0854C86.8355,122.2112,84.6646,124.9946,83.0553,127.6681C79.2643,133.9661,81.7973,143.8699,89.9842,144.9108C100.0646,146.1924,112.7886,136.0931,112.3552,125.5378C112.0848,118.9533,106.6374,113.4901,99.7445,114.5903C92.8006,115.6987,85.9085,122.9156,80.5599,127.0849"/>
  <path fill="none" stroke="#969696" transform="translate(0, 13)" d="M87.906,147.3748C85.676,157.5794,84.7696,167.9669,84.7696,178.3979C84.7696,182.5433,84.5931,184.4081,85.8665,187.9984"/>
  <path fill="none" stroke="#969696" transform="translate(0, 13)" d="M101.0623,145.1637C105.559,145.7312,108.4623,153.6775,109.7117,156.9596C112.9954,165.5857,116.0216,174.3272,119.1085,183.0232"/>
  <path fill="none" stroke="#969696" transform="translate(0, 13)" d="M135.8611,119.1259C130.4241,124.5629,122.5383,141.8121,133.3275,146.5741C137.7174,148.5116,143.5845,147.9809,148.174,147.3496C151.4265,146.9022,154.6392,146.158,157.2395,144.0012C164.2651,138.1738,163.4113,125.0296,155.6098,120.3057C148.7317,116.141,141.943,116.8888,135.1158,120.3024L135.8611,119.1259z"/>
  <path fill="none" stroke="#969696" transform="translate(0, 13)" d="M136.5144,148.2827C134.1158,154.966,134.4815,162.0177,133.5888,168.9528C133.0874,172.8487,132.4646,176.7284,131.9761,180.6259C131.8374,181.7317,131.4324,184.992,131.8712,183.9675"/>
  <path fill="none" stroke="#969696" transform="translate(0, 13)" d="M150.2988,148.5362C152.3147,149.6424,154.1654,152.3475,155.4842,154.0643C160.0418,159.997,163.3083,166.2948,165.7077,173.3745C166.0976,174.5251,167.7904,181.5503,169.0398,183.6799"/>
  <path fill="none" stroke="#969696" transform="translate(0, 13)" d="M183.9216,120.317C180.2079,121.3598,175.0314,121.4909,172.0203,124.2704C166.6883,129.1923,168.2578,140.281,173.6925,144.516C179.7479,149.2347,190.3324,150.0835,196.7414,145.7878C208.1522,138.1398,203.8048,126.2273,193.9718,119.5509C190.8629,117.4401,181.7925,115.718,179.1696,119.6524L183.9216,120.317z"/>
  <path fill="none" stroke="#969696" transform="translate(0, 13)" d="M176.5452,148.0747C174.9952,151.9496,174.862,156.9805,174.1989,161.0414C173.1276,167.6019,172.0582,174.3214,173.374,180.95"/>
  <path fill="none" stroke="#969696" transform="translate(0, 13)" d="M195.0255,150.0974C198.39,156.8426,200.6961,165.6879,202.4288,172.9926C203.7483,178.5551,203.8413,180.0328,204.6186,185.3347C204.6571,185.5973,204.7143,187.4241,205.1912,187.4241"/>
  <path fill="none" stroke="#969696" transform="translate(0, 13)" d="M63.4933,125.3482C66.943,119.6908,75.1403,121.6942,78.6398,125.8608C82.9939,131.0449,82.0279,139.8623,78.0397,144.8957C75.6571,147.9027,72.0663,149.2237,68.51,150.214C65.3931,151.082,57.5974,151.5006,56.0176,147.7236"/>
  <path fill="none" stroke="#969696" transform="translate(0, 13)" d="M76.51,149.9953C77.114,152.3053,79.3975,154.7243,80.3787,156.9265C81.7107,159.9158,82.377,163.1167,83.7602,166.0822"/>
  <path fill="none" stroke="#969696" transform="translate(0, 13)" d="M111.3755,122.6672C115.2681,119.7497,125.2257,119.2264,129.6073,121.1329C130.7446,121.6277,131.2949,123.3247,132.1381,124.1706"/>
  <path fill="none" stroke="#969696" transform="translate(0, 13)" d="M106.7833,139.7203C108.3316,142.8308,109.5622,146.635,112.7617,148.5727C118.5076,152.0524,129.8653,151.2872,130.5489,143.132"/>
  <path fill="none" stroke="#969696" transform="translate(0, 13)" d="M115.1966,150.6727C114.3459,154.0513,112.0619,156.8835,112.0619,160.5328"/>
  <path fill="none" stroke="#969696" transform="translate(0, 13)" d="M20.3165,148.834C21.088,151.1539,23.2492,150.9571,25.3271,150.9571C29.7573,150.9571,33.9991,151.3242,37.9276,149.0028"/>
  <path fill="none" stroke="#969696" transform="translate(0, 13)" d="M23.3554,124.6259C25.0663,123.0063,28.6847,121.9598,29.6489,124.3803L23.3554,124.6259z"/>
  <path fill="none" stroke="#969696" transform="translate(0, 13)" d="M20.5801,153.2719C19.6419,155.6174,18.2435,158.6892,18.5148,161.231"/>
  <path fill="none" stroke="#969696" transform="translate(0, 13)" d="M162.0436,125.8053C164.2709,123.0142,168.9106,119.3483,172.4768,122.0458"/>
  <path fill="none" stroke="#969696" transform="translate(0, 13)" d="M156.1319,151.9603C157.0098,153.7463,159.493,153.6296,161.0897,154.2152C165.8426,155.9581,169.8299,155.96,173.8176,152.8519"/>
  <path fill="none" stroke="#969696" transform="translate(0, 13)" d="M21.728,53.4823C20.4308,52.6194,18.909,51.9094,18.0499,50.5411C15.5642,46.5818,18.6409,41.7375,21.6422,39.2544C26.7297,35.0452,37.1502,35.054,40.5134,41.8025C41.4081,43.5978,41.4166,46.142,41.3169,48.0849C41.139,51.5534,40.3326,56.2156,37.4785,58.6201C31.0141,64.0662,20.132,58.8253,18.9847,50.9986L21.728,53.4823z"/>
  <path fill="none" stroke="#969696" transform="translate(0, 13)" d="M24.1062,62.075C19.2037,71.8566,14.5215,81.8126,14.5215,93.0667"/>
  <path fill="none" stroke="#969696" transform="translate(0, 13)" d="M35.8545,61.5771C42.8282,70.0316,44.4576,83.8419,46.8759,94.1535"/>
  <path fill="none" stroke="#969696" transform="translate(0, 13)" d="M37.5059,62.1059C49.5311,62.1059,62.1955,54.4302,72.6659,49.2793"/>
  <path fill="none" stroke="#969696" transform="translate(0, 13)" d="M43.7714,26.6936C53.9363,28.1516,64.4588,27.4607,74.7015,27.4607C93.0283,27.4607,111.4944,27.7156,129.8025,26.9678C135.2426,26.7456,140.9324,26.4254,146.2404,25.1285C152.6302,23.5673,160.2506,20.7242,166.7182,23.3155"/>
  <path fill="none" stroke="#969696" transform="translate(0, 13)" d="M104.8184,15.2864C104.8184,18.8334,104.9445,22.4359,104.9445,26.0072"/>
  <path fill="none" stroke="#969696" transform="translate(0, 13)" d="M61.968,95.3065C81.3338,95.3065,100.522,96.7357,119.8443,97.0813C138.0215,97.4065,156.1818,96.774,174.3621,96.774"/>
  <path fill="none" stroke="#969696" transform="translate(0, 13)" d="M116.5716,99.1321C116.042,103.2612,117.2496,107.7626,117.2496,111.9676"/>
  <path fill="none" stroke="#969696" transform="translate(0, 13)" d="M114.9246,100.7426C110.2686,105.3986,103.4819,108.3307,98.1721,112.2172"/>
  <path fill="none" stroke="#969696" transform="translate(0, 14)" d="M118.5954,100.6041C126.3613,102.1598,133.8883,106.2866,141.1682,109.2529"/>
</svg>