<?xml version="1.0" encoding="UTF-8" standalone="no"?>
<!-- Created with Pixodesk SVG (https://pixodesk.com) -->
<svg xmlns="http://www.w3.org/2000/svg" viewBox="0 0 200 200" text-rendering="geometricPrecision" shape-rendering="geometricPrecision" fill="none" stroke="#727272" stroke-width="4">
  <path fill="none" stroke="#737373" transform="translate(4, 11)" d="M61.5106,114.0771C60.4331,110.2521,57.9363,107.2605,56.1918,103.7764C53.6867,98.7732,51.6486,93.3757,50.2888,87.9567C45.4967,68.8597,49.9719,48.5484,61.0819,32.7554C71.9771,17.2677,90.8487,19.5325,107.3737,20.9214C112.0633,21.3155,123.5618,21.8298,126.3622,27.0404C130.7701,35.2424,130.3557,45.6627,130.3557,54.617C130.3557,68.145,131.2399,81.3569,125.2664,93.8675C121.3452,102.0798,111.3427,107.3447,110.1417,116.7085"/>
  <path fill="none" stroke="#737373" transform="translate(4, 11)" d="M62.5985,114.4128C67.9906,113.493,73.3088,113.8382,78.7462,113.7066C89.8984,113.4366,101.0871,113.2645,112.2336,113.2645"/>
  <path fill="none" stroke="#737373" transform="translate(4, 11)" d="M61.2229,117.0588C61.3786,118.112,60.9923,124.4434,62.2045,124.8713C65.5878,126.0654,71.3959,124.7769,74.9026,124.6944C84.7202,124.4637,93.9628,124.215,103.6533,123.3267C105.3522,123.171,109.9764,124.2758,111.3371,123.0782C111.6582,122.7956,111.2807,120.9466,111.3371,120.4334C111.5963,118.0716,111.4167,116.046,111.1983,113.6887"/>
  <path fill="none" stroke="#737373" transform="translate(4, 11)" d="M87.0187,110.4876C85.3015,101.9886,87.9853,94.0541,84.8932,85.6879C84.3392,84.189,84.2413,80.7293,83.2412,79.6573C80.7031,76.9367,76.7628,74.2395,73.6244,72.1973C72.8806,71.7133,70.1188,70.5779,70.1312,69.454C70.1434,68.3401,73.5367,66.7985,74.1661,66.4969C79.5568,63.9143,86.4295,64.5131,92.2312,65.1784C94.8752,65.4816,97.5869,66.0459,100.2373,66.1802C101.2663,66.2323,103.3826,65.3497,103.322,66.3783C103.2402,67.7667,99.2377,71.4231,98.4778,72.1515C94.6562,75.8141,90.2693,78.9885,86.3516,82.5797"/>
  <path fill="none" stroke="#737373" transform="translate(4, 11)" d="M41.6995,113.6786C35.3963,116.8378,23.5545,115.8833,17.0644,113.7122"/>
  <path fill="none" stroke="#737373" transform="translate(4, 11)" d="M32.0548,96.6646C28.2224,93.7334,24.5974,90.7619,20.0428,88.973C18.435,88.3415,15.3216,88.0654,15.5702,86.3561"/>
  <path fill="none" stroke="#737373" transform="translate(4, 11)" d="M27.13,61.4412C25.7993,56.169,19.8316,52.7063,17.1674,48.1409"/>
  <path fill="none" stroke="#737373" transform="translate(4, 11)" d="M39.0121,30.2774C37.1807,24.4803,34.6076,18.8822,32.2887,13.2667"/>
  <path fill="none" stroke="#737373" transform="translate(4, 11)" d="M74.8791,7.967C75.6589,5.3033,76.3956,2.3531,77.5788,-0.1657"/>
  <path fill="none" stroke="#737373" transform="translate(4, 11)" d="M140.5914,25.4645C141.3028,26.6771,142.2652,23.2038,143.0449,22.0339C144.5706,19.7445,146.1636,17.8439,148.2752,16.094"/>
  <path fill="none" stroke="#737373" transform="translate(4, 11)" d="M142.8143,82.8215C151.9983,80.5255,164.5595,87.7964,171.5605,92.9598"/>
  <path fill="none" stroke="#737373" transform="translate(4, 11)" d="M136.749,115.4448C139.0692,118.5469,142.1776,120.8224,145.0081,123.4285C149.5676,127.6267,153.7985,132.7656,159.0336,136.1569"/>
  <path fill="none" stroke="#737373" transform="translate(4, 11)" d="M59.544,130.6288C55.248,139.2047,52.2567,147.3572,50.047,156.7727C47.3614,168.2161,44.9655,179.8087,49.1247,191.1701"/>
  <path fill="none" stroke="#737373" transform="translate(4, 11)" d="M112.5313,128.1507C115.2843,133.6698,118.7301,138.7856,120.9863,144.5771C122.9163,149.5314,125.7945,160.1525,126.9106,164.1588C128.2566,168.9905,129.4949,173.8517,130.8325,178.6858C131.2414,180.1634,132.2238,184.6031,132.2238,183.0699"/>
</svg>