<?xml version="1.0" encoding="UTF-8" standalone="no"?>
<!-- Created with Pixodesk SVG (https://pixodesk.com) -->
<svg xmlns="http://www.w3.org/2000/svg" viewBox="0 0 200 200" text-rendering="geometricPrecision" shape-rendering="geometricPrecision" stroke-width="4">
  <path fill="none" stroke="#898989" stroke-width="4" d="M2.815,139.1946C7.7729,140.446,14.1789,138.5078,19.2268,138.4055C40.2023,137.9803,58.5648,128.723,76.2569,118.2989C83.4653,114.0518,89.8189,109.7685,96.0658,104.1648C102.8745,98.0571,107.9911,89.6048,112.6063,81.7928C114.0271,79.388,115.3208,76.7262,116.291,74.1012C116.3891,73.8357,117.0099,71.4614,117.2949,71.5079C117.9982,71.6226,117.9724,72.762,118.3359,73.3748C119.2775,74.9623,120.3556,76.49,121.4262,77.9929C125.7901,84.1192,130.3582,90.8411,136.4904,95.3763C145.1893,101.8097,154.6523,109.1586,164.677,113.373C167.6512,114.6234,170.6097,115.5055,173.771,116.2484C174.6591,116.4571,176.553,116.5234,177.1479,117.2983C177.5717,117.8505,175.6736,122.2162,175.5339,122.7794C173.8975,129.3765,171.3526,135.9713,168.4053,142.0711C159.6175,160.2582,146.0563,176.8965,129.9461,189.0278C126.7488,191.4354,123.0796,193.3814,119.4361,195.0316C117.3011,195.9985,114.5998,196.3746,112.6992,197.7547"/>
  <path fill="none" stroke="#898989" stroke-width="4" d="M119.7529,73.4062C120.7795,72.4661,122.0945,69.8067,123.3502,69.2951C123.7389,69.1367,123.4968,70.1298,123.6658,70.514C123.9632,71.1899,124.127,71.9853,124.4471,72.6316C125.5409,74.8404,127.7453,76.7685,129.3517,78.6208C135.1196,85.272,140.677,91.7801,147.1145,97.8006C154.0678,104.3036,161.5085,108.0795,170.402,111.0662C173.7096,112.177,177.3514,112.9728,180.7318,113.9405C181.3801,114.1261,184.2665,113.9314,184.6593,114.3132C184.9408,114.5868,182.5562,118.5717,182.3984,118.9033C180.242,123.4342,178.3689,128.2,176.9005,132.9949C171.8728,149.4132,163.2117,166.1785,149.9217,177.5217C145.8167,181.0253,140.8231,183.0221,136.5005,186.13C132.5817,188.9476,129.2601,192.4814,126.0846,196.0803"/>
  <path fill="none" stroke="#898989" stroke-width="4" d="M127.1009,74.0251C128.0397,72.7466,129.141,71.5116,129.9998,70.1815C130.4826,69.4337,131.1088,66.9094,130.499,67.558C128.5212,69.6615,131.4867,73.5215,132.7364,75.0325C134.4917,77.1548,135.6466,79.7792,137.4597,81.8578C140.91,85.8132,145.1722,88.8139,148.7453,92.6341C152.3509,96.489,157.9149,100.6503,162.5224,103.2873C165.3292,104.8937,168.5295,105.7217,171.2874,107.4778C174.3219,109.4101,177.8383,111.5563,181.4683,112.1721C184.29,112.6507,187.4762,110.2945,190.1258,110.9521C190.9741,111.1626,189.5271,112.5944,189.2337,113.4178C188.7941,114.6518,188.4926,115.9158,188.0552,117.1517C186.0178,122.9075,182.7654,127.8008,180.5281,133.4247C178.0737,139.5943,175.8237,145.9246,173.9647,152.3023C172.6439,156.8336,171.711,161.7646,168.6179,165.484C163.3639,171.8017,157.7809,178.6022,151.239,183.643C148.733,185.574,145.2243,185.4181,142.7953,187.0903C138.9856,189.713,134.8688,193.5534,131.8253,197.0317"/>
  <path fill="none" stroke="#898989" stroke-width="4" d="M132.8405,73.1678C133.7166,71.9963,134.585,70.7929,135.3286,69.5167C135.6049,69.0426,135.7573,67.3698,135.5838,67.8904C135.0606,69.4601,137.92,72.5926,138.626,73.7061C142.765,80.2346,147.0803,86.5168,151.6341,92.6565C153.0883,94.617,157.0462,95.4679,159.1858,96.7273C167.6942,101.735,177.1513,104.7254,186.5262,107.6088C190.2927,108.7672,194.9508,110.413,198.8113,109.7085C199.6195,109.5611,197.7877,110.9967,197.3395,111.6852C196.1467,113.5173,195.1734,115.5039,194.2917,117.5043C191.7992,123.1591,189.4701,128.4767,187.3198,134.2698C184.4471,142.0091,182.5655,150.0451,179.7009,157.7991C178.4078,161.2994,177.3146,165.3951,175.0101,168.4612C170.5509,174.3941,163.6857,178.7365,157.8819,183.2322C154.6794,185.7129,152.3654,189.1078,149.3699,191.8137C147.2192,193.7563,144.7179,195.5345,143.0885,197.9786"/>
  <path fill="none" stroke="#898989" stroke-width="4" d="M114.2707,104.8173C112.0501,107.8242,107.1785,109.8331,104.392,112.4015C98.7192,117.6303,92.2884,125.2808,90.7504,133.0711C90.0491,136.623,88.8663,139.8172,90.3262,143.2463C92.2136,147.6799,100.3888,142.2609,103.2828,141.7174C112.9544,139.9012,126.9937,134.074,134.694,142.427C136.9005,144.8206,140.3406,147.6606,141.0884,150.9883C142.1412,155.6733,140.016,161.1422,137.1844,164.7788C134.4603,168.2773,130.9202,170.8855,127.2788,173.3659C125.6553,174.4718,123.8839,175.7939,122.982,173.5427"/>
  <path fill="none" stroke="#898989" stroke-width="4" d="M99.1247,116.1108C106.8928,131.7344,113.4868,147.7251,123.1879,162.3153C125.6984,166.0911,128.8551,169.3832,131.2735,173.2539C131.8488,174.1747,132.4489,175.0805,132.9994,176.0163C133.4919,176.8533,134.9488,179.3738,134.5116,178.5067"/>
  <path fill="none" stroke="#898989" stroke-width="4" d="M66.1399,138.063C62.528,139.6472,58.8473,142.9199,55.6702,145.0405C53.9988,146.1562,52.1144,147.1248,50.5708,148.4386C50.0298,148.8991,48.4753,150.2084,48.0155,151.267C47.568,152.2976,47.0358,153.3074,46.7687,154.3987C44.655,163.0334,52.5782,161.5711,58.3442,161.4468C61.5807,161.377,64.8193,161.3861,68.0561,161.4468C71.4654,161.5107,73.1223,161.5841,76.4774,162.2896C78.3027,162.6734,83.0495,164.3789,83.3542,166.648C84.4142,174.5417,76.3142,182.6016,70.139,185.9979C67.1135,187.662,64.9302,189.9197,62.0019,186.9974"/>
  <path fill="none" stroke="#898989" stroke-width="4" d="M50.1601,137.6153C52.2745,138.6815,53.2213,140.982,54.3316,142.962C56.7968,147.3586,58.8649,151.9677,61.0035,156.5321C65.5637,166.2646,70.6593,175.8327,75.8887,185.2279C77.6585,188.4076,80.2092,191.5134,81.5556,194.9073"/>
  <path fill="none" stroke="#898989" stroke-width="4" d="M10.4562,156.2601C8.7588,156.9251,7.1762,157.7437,5.5415,158.5613C4.9431,158.8606,4.3501,159.1709,3.7462,159.4589C-4.0509,163.1782,8.0473,163.6584,10.7237,164.4722C18.1839,166.7404,26.9407,171.5479,23.4185,180.8303C22.7206,182.6693,19.8894,184.23,18.5519,185.4003C12.5967,190.611,3.9049,193.3511,-3.2201,188.138C-5.3006,186.6158,-6.7902,183.7707,-8.4012,181.7951C-9.879,179.9829,-11.9279,178.3194,-12.1743,175.9144"/>
  <path fill="none" stroke="#898989" stroke-width="4" d="M4.5812,145.2957C4.5812,154.9187,7.6961,164.3093,8.7337,173.8472C9.4762,180.6725,7.4031,190.0263,11.6314,196.171"/>
  <path fill="none" stroke="#898989" stroke-width="4" d="M153.238,196.4351C158.0203,191.6528,163.5551,187.4686,167.4595,181.8443C169.4744,178.9418,170.3192,174.9179,172.6719,172.2589C176.2199,168.2492,180.9823,165.5542,184.1959,160.942C191.2697,150.7896,194.2587,136.3207,195.5308,124.1594"/>
  <path fill="none" stroke="#898989" stroke-width="4" d="M160.8726,196.4139C169.3007,191.6792,173.6551,184.7058,178.3041,176.7528C181.7124,170.9223,185.6328,165.5533,188.5544,159.4489C190.8215,154.7118,195.3525,150.3094,195.5128,144.8155"/>
  <path fill="none" stroke="#898989" stroke-width="4" d="M169.3566,196.4676C179.3097,190.8763,184.6277,183.7832,190.8511,174.4426C195.1661,167.9664,199.5306,161.0736,198.855,152.9773"/>
  <path fill="none" stroke="#898989" stroke-width="4" d="M179.0193,196.7295C185.898,192.0348,190.1349,185.8254,193.8026,178.3214C195.1411,175.5828,195.8843,172.4266,197.3966,169.8267"/>
  <path fill="none" stroke="#898989" stroke-width="4" d="M193.797,189.3658C193.797,192.2694,192.0934,194.8251,190.6519,197.2209"/>
  <path fill="none" stroke="#898989" stroke-width="4" d="M21.3232,3.5794C19.068,7.5757,17.5684,11.6926,14.3893,15.0878C13.2945,16.2569,8.9926,19.215,8.6117,20.7524C8.5066,21.1765,9.4736,20.9086,9.891,21.0378C10.8927,21.348,11.9658,21.9517,12.7641,22.6104C14.6732,24.1855,16.2031,26.4168,17.6263,28.4093C23.1745,36.1774,29.0544,43.958,33.6229,52.3796C39.192,62.6458,44.3958,73.9402,47.3641,85.2447C48.1883,88.3836,48.4291,91.7543,48.6345,94.9868C48.6805,95.7107,48.3689,97.2321,49.0475,97.7178C49.65,98.149,50.2814,96.8907,50.9424,96.556C52.197,95.9209,53.4255,95.2345,54.6438,94.5324C61.8031,90.4065,68.17,85.6397,74.2915,80.0882C89.4657,66.3268,103.1017,49.5118,110.6498,30.2774C114.1393,21.3855,116.0612,10.9188,118.0885,1.5547"/>
  <path fill="none" stroke="#898989" stroke-width="4" d="M152.9414,3.838C159.662,17.5108,170.8806,28.37,182.8517,37.3668C188.5658,41.6612,194.374,46.5586,201.0779,49.1359"/>
</svg>