<?xml version="1.0" encoding="UTF-8" standalone="no"?>
<!-- Created with Pixodesk SVG (https://pixodesk.com) -->
<svg xmlns="http://www.w3.org/2000/svg" viewBox="0 0 200 200" text-rendering="geometricPrecision" shape-rendering="geometricPrecision" fill="none" stroke="#727272" stroke-width="4">
  <path fill="none" stroke="#727272" d="M39.4666,117.8109C31.5064,120.7503,27.696,135.7784,31.2444,142.9173C32.5566,145.5572,35.6467,147.3761,37.9499,148.977C45.3412,154.1143,55.1417,154.2414,62.1329,148.6211C68.9041,143.1775,68.0787,129.9855,61.9672,124.2199C60.0787,122.4383,57.1533,122.4966,54.7535,121.753C49.4223,120.1012,42.0317,116.5638,36.3069,118.1792L39.4666,117.8109z"/>
  <path fill="none" stroke="#727272" d="M40.353,154.4155C37.9059,161.7386,36.3423,169.2104,34.5854,176.7125C32.4043,186.026,28.8614,196.2489,29.8151,206.0306"/>
  <path fill="none" stroke="#727272" d="M57.7767,154.195C59.0838,164.0367,60.2505,174.0046,61.7725,183.8243C62.6332,189.3779,64.1341,195.0503,64.1341,200.7007"/>
  <path fill="none" stroke="#727272" d="M1.0264,136.7288C1.9724,134.6252,3.6478,133.6605,5.6042,132.5293C14.0603,127.6398,21.7717,132.3057,26.9498,139.4934C28.2814,141.3419,29.8011,143.2526,30.0222,145.6147C31.0617,156.7238,25.7234,162.7439,15.8108,165.8981C11.2896,167.3368,6.8498,166.6959,2.7724,164.1957C1.8026,163.601,-0.3234,162.6637,-0.7824,161.5374"/>
  <path fill="none" stroke="#727272" d="M8.3296,167.2211C5.5318,179.879,3.2888,192.3844,2.0483,205.3176"/>
  <path fill="none" stroke="#727272" d="M25.5966,167.6688C26.5494,173.1494,27.9657,179.8276,30.9332,184.5899"/>
  <path fill="none" stroke="#727272" d="M69.9152,134.6414C74.4264,129.4778,87.8632,130.4728,91.9502,135.989C96.7666,142.4896,99.3704,159.947,90.6463,164.846C88.9339,165.8076,86.2336,165.1303,84.4332,164.8997C80.6127,164.4105,76.6601,165.1216,72.9394,164.0278C68.5884,162.7487,65.3202,158.9637,62.8459,155.2941"/>
  <path fill="none" stroke="#727272" d="M66.7353,167.2625C65.5573,172.592,64.3278,177.699,62.847,182.9726"/>
  <path fill="none" stroke="#727272" d="M90.5937,167.7001C91.7374,178.1831,94.8973,187.9799,97.0261,198.245"/>
  <path fill="none" stroke="#727272" d="M96.453,130.4195C96.453,119.751,106.7202,110.6381,116.5518,108.3576C123.5182,106.7417,132.0773,111.2071,133.8433,118.2889C135.4599,124.7713,135.5378,132.5652,131.4336,138.2354C128.4248,142.3922,123.5131,145.4807,118.5631,146.6153C111.5365,148.2259,101.6176,140.1068,99.1874,133.8501L96.453,130.4195z"/>
  <path fill="none" stroke="#727272" d="M102.7791,144.2111C104.8716,144.2164,102.7964,149.4913,102.6504,150.1645C101.2557,156.5974,99.3741,163.1894,98.7565,169.7428"/>
  <path fill="none" stroke="#727272" d="M127.4378,149.3352C131.1147,164.0781,134.798,178.8923,138.4189,193.6459"/>
  <path fill="none" stroke="#727272" d="M145.758,131.729C147.5768,128.0914,150.8974,125.0947,154.3237,123.0144C159.1816,120.065,165.8795,116.2999,171.772,117.68C184.392,120.6357,190.7504,139.575,184.356,150.4634C176.519,163.8079,158.5704,164.2484,147.4369,155.0009C142.2745,150.7131,141.5094,145.266,142.3386,139.0334C142.6593,136.6229,142.6105,133.1809,144.4831,131.3082L145.758,131.729z"/>
  <path fill="none" stroke="#727272" d="M152.3684,157.3502C148.6386,168.5116,148.5486,180.2244,146.2572,191.6816"/>
  <path fill="none" stroke="#727272" d="M168.2463,165.4817C174.1575,174.5099,177.8622,184.8731,182.1924,194.7182"/>
  <path fill="none" stroke="#727272" d="M136.7053,121.1564C140.663,118.1966,146.2658,117.4441,149.7594,121.5672C151.5703,123.7045,152.2237,126.8958,153.266,129.4592"/>
  <path fill="none" stroke="#727272" d="M131.5332,146.7911C134.9809,149.5087,140.7703,152.1165,145.2106,150.3526"/>
  <path fill="none" stroke="#727272" d="M191.1298,141.798C194.7811,139.7568,201.309,137.9309,202.5598,143.4075"/>
  <path fill="none" stroke="#727272" d="M181.2511,158.0308C181.9834,159.8036,182.4422,162.3104,184.0885,163.504C188.717,166.8598,195.3934,164.7181,199.8343,162.5034"/>
  <path fill="none" stroke="#727272" d="M185.6868,167.2625C183.6579,172.4407,179.9154,179.056,179.7972,184.6336"/>
  <path fill="none" stroke="#727272" d="M12.1564,94.0488C10.0684,90.1433,8.193,86.1132,6.0888,82.2193C5.3603,80.871,4.4271,80.467,4.8565,78.9936"/>
  <path fill="none" stroke="#727272" d="M40.8198,88.4514C37.9604,82.0178,38.1691,70.5605,39.9299,63.8207"/>
  <path fill="none" stroke="#727272" d="M74.4907,77.3617C73.1661,68.1265,73.4921,57.6054,75.8484,48.5864"/>
  <path fill="none" stroke="#727272" d="M110.0074,75.3302C114.5921,66.1608,115.5176,55.5718,119.8749,46.3389"/>
  <path fill="none" stroke="#727272" d="M162.2571,76.7573C162.2571,69.9769,161.8974,62.8749,163.8812,56.3127"/>
  <path fill="none" stroke="#727272" d="M182.4801,86.9896C183.8534,80.0774,184.0925,71.9985,188.889,66.432"/>
</svg>