<?xml version="1.0" encoding="UTF-8" standalone="no"?>
<!-- Created with Pixodesk SVG (https://pixodesk.com) -->
<svg xmlns="http://www.w3.org/2000/svg" viewBox="0 0 200 200" text-rendering="geometricPrecision" shape-rendering="geometricPrecision" fill="none" stroke="#727272" stroke-width="4">
  <path fill="none" stroke="#6a6a6a" d="M77.9325,84.5709C74.8503,89.6135,72.1873,95.3639,70.7524,101.089C70.0235,103.9972,69.0387,107.4701,70.2543,110.4058C72.7642,116.4674,83.1881,123.6354,89.6926,123.3894C93.8367,123.2326,97.6744,122.3442,101.7013,121.5347C105.9398,120.6828,109.9344,119.5663,112.9488,116.1399C119.4089,108.7969,118.3268,99.3682,115.5164,90.9686C114.4125,87.6692,112.9293,82.8871,109.9134,80.6758C100.783,73.9814,82.7718,76.1621,76.351,86.252L77.9325,84.5709z"/>
  <path fill="none" stroke="#6a6a6a" d="M70.1558,95.6729C66.9118,98.215,64.5102,102.4438,62.3131,105.7967C57.4373,113.2373,54.4907,119.9308,52.5721,128.8178C47.4704,152.4492,42.2376,179.4325,46.3355,203.5962"/>
  <path fill="none" stroke="#6a6a6a" d="M118.8127,93.6347C120.7271,94.1457,122.3081,97.0263,123.3536,98.5114C126.8633,103.4971,128.6268,109.8923,131.175,115.409C136.7924,127.5703,142.3919,140.3838,145.7434,153.3712C149.399,167.5368,150.2944,182.6279,150.2944,197.1873"/>
  <path fill="none" stroke="#6a6a6a" d="M65.4448,133.0352C65.4448,139.241,64.4843,144.7935,65.8712,151.0387C66.269,152.8296,67.3087,159.9675,70.1032,160.9867"/>
  <path fill="none" stroke="#6a6a6a" d="M122.3126,132.7543C122.3126,138.681,124.8257,144.4704,124.3866,150.366C124.058,154.7789,120.2722,157.7603,120.2722,162.2034"/>
  <path fill="none" stroke="#6a6a6a" d="M16.8741,18.506C19.6027,22.1857,22.9779,25.3384,25.6973,29.0741C26.2961,29.8968,28.7846,31.4535,28.66,32.5942C28.1718,37.0653,24.4796,41.91,22.3753,45.6718C21.5625,47.1248,20.7738,48.5916,19.9319,50.028C19.6361,50.5328,18.4868,51.5865,19.0712,51.558C19.8867,51.5182,20.3669,50.5385,21.1105,50.2015C22.7743,49.4473,25.5768,48.5088,27.3214,47.9585C32.6837,46.2667,38.1593,45.1215,43.4635,43.2374C43.96,43.061,51.2152,41.2522,51.83,40.3631C52.0478,40.0482,50.6958,37.2411,50.6055,36.9572C49.3348,32.9593,47.4084,29.0917,46.7049,24.925C46.3964,23.098,46.3948,21.1095,46.3948,19.2503C46.3948,18.6295,46.3948,18.0087,46.3948,17.3878C46.3948,16.95,46.6491,15.7776,46.3288,16.0761C43.8081,18.4247,41.3369,20.8517,38.7558,23.1857C38.5998,23.3268,36.7355,25.1432,36.5833,25.0616C33.0776,23.1795,29.8755,18.1777,26.961,15.484C24.5856,13.2885,22.5488,11.6117,20.458,9.2922"/>
  <path fill="none" stroke="#6a6a6a" d="M5.9332,103.97C9.6752,101.4698,15.2476,102.7044,19.4037,103.0925C20.5149,103.1963,21.6442,104.0711,22.6965,103.6992C23.9672,103.2502,22.5793,101.0064,22.5287,99.6597C22.4063,96.4079,22.8922,93.09,23.1722,89.8583C23.185,89.7107,23.7968,83.8807,23.8539,83.9139C31.2559,88.2173,38.3045,94.7514,44.407,100.6682C45.8705,102.0871,47.2867,103.7654,48.8438,105.1117C49.5299,105.705,51.0011,105.9787,50.9111,106.8813C50.8519,107.4747,47.7356,108.9674,47.1761,109.3616C42.7047,112.5115,37.8925,115.2561,33.6956,118.7836C30.0071,121.8838,26.2556,125.4551,23.067,129.0697C22.6836,129.5043,19.7672,134.0983,19.1529,134.0135C18.1398,133.8736,19.4009,131.9829,19.5357,130.9691C19.8798,128.3808,20.0262,127.7388,19.8693,124.9765C19.6969,121.9409,18.5071,118.9908,17.8053,116.0503C17.5595,115.0204,17.8793,113.361,16.8797,113.0115C16.8002,112.9837,15.3485,114.2515,15.0989,114.4072C14.2322,114.9481,12.895,115.0088,11.9695,115.1695"/>
  <path fill="none" stroke="#6a6a6a" d="M169.3007,11.5967C167.0207,14.6367,164.9325,17.8458,162.6847,20.9214C162.1121,21.7049,160.9892,24.4278,159.9682,24.4247C159.8024,24.4242,157.6288,22.7961,157.2674,22.6999C151.7732,21.2368,146.7667,19.8306,141.4544,17.5378C140.6171,17.1765,136.3756,15.1438,135.9039,15.9664C135.2133,17.1709,135.1731,19.2203,134.6985,20.5946C132.1398,28.0035,129.7259,35.3603,128.0243,43.0281C127.9944,43.1627,126.6725,50.4166,127.1456,50.4097C129.1352,50.3803,132.7833,47.5098,134.9011,46.884C140.5332,45.2196,147.6795,46.708,153.3175,47.5712C159.5131,48.5197,166.0354,49.1451,171.7261,51.9945C173.2644,52.7648,177.641,55.6113,179.6785,54.3719C180.5574,53.8373,178.3607,49.7019,178.0254,48.9535C176.6455,45.8742,175.4308,42.6961,173.4968,39.902C171.9866,37.72,169.6888,35.8382,168.2866,33.6598C167.9028,33.0634,169.5462,30.3688,169.7495,30.0031C172.6071,24.863,175.803,18.8938,179.5856,14.433"/>
  <path fill="none" stroke="#6a6a6a" d="M189.9904,94.229C186.8825,94.5718,183.4662,94.5643,180.3423,94.595C180.2238,94.5962,176.8357,94.4867,176.6755,93.9649C175.5131,90.1773,175.4081,86.2949,173.6076,82.5416C172.6758,80.5992,172.5763,80.3494,171.8336,78.2694C171.613,77.6517,171.5085,75.8316,171.1956,76.408C167.8466,82.5772,164.5121,88.6375,160.2659,94.2917C157.6712,97.7469,153.3136,101.9968,151.7125,106.0899C151.4331,106.8041,153.1787,106.6468,153.7496,107.1588C154.7569,108.0624,155.7075,109.0273,156.6854,109.9626C160.1298,113.2572,163.6477,116.4515,166.9334,119.8961C169.7368,122.8352,173.1753,124.6739,176.1036,127.3594C176.9059,128.0952,178.2194,129.92,179.3316,130.1934C180.1598,130.397,179.5588,128.4996,179.5834,127.6471C179.6748,124.4846,179.6707,121.2496,179.5834,118.0896C179.4984,115.0096,175.7372,107.7808,177.9426,104.8767C178.2271,104.502,179.7894,104.664,180.1923,104.664C182.345,104.664,184.5048,104.1712,186.6415,103.9499"/>
</svg>