<?xml version="1.0" encoding="UTF-8" standalone="no"?>
<!-- Created with Pixodesk SVG (https://pixodesk.com) -->
<svg xmlns="http://www.w3.org/2000/svg" viewBox="0 0 200 200" text-rendering="geometricPrecision" shape-rendering="geometricPrecision" fill="none" stroke="#8d8d8d" stroke-width="4">
  <path fill="none" stroke="#8d8d8d" transform="translate(0, 13)" d="M138.8633,117.9878C135.54,122.4188,132.0399,128.381,132.7789,134.1814C134.2071,145.3909,145.6713,147.0773,154.0294,142.5647C162.7967,137.8311,162.0049,124.5175,153.876,119.7876C149.8883,117.4672,142.9723,118.6974,138.9092,118.6974L138.8633,117.9878z"/>
  <path fill="none" stroke="#8d8d8d" transform="translate(0, 13)" d="M140.0407,147.0731C138.0489,156.0847,137.4301,165.3473,136.2151,174.4784C135.5267,179.6514,134.7145,184.355,135.7192,189.4654"/>
  <path fill="none" stroke="#8d8d8d" transform="translate(0, 13)" d="M155.1162,145.4088C160.151,155.5027,165.8588,165.6227,168.9,176.6006C170.0723,180.8322,170.4133,185.3667,171.1497,189.6949"/>
  <path fill="none" stroke="#8d8d8d" transform="translate(0, 13)" d="M138.7491,150.3011C136.4682,152.0885,132.6727,151.0355,130.2953,150.0381C124.5825,147.6412,118.8025,144.0889,113.8946,140.3407"/>
  <path fill="none" stroke="#8d8d8d" transform="translate(0, 13)" d="M158.2792,145.5912C161.964,141.9064,165.7123,137.9486,168.8664,133.8053C171.1588,130.7939,175.1757,126.2519,175.1757,121.9556"/>
  <path fill="none" stroke="#8d8d8d" transform="translate(0, 13)" d="M159.6783,97.8342C167.8039,112.4239,179.2153,125.0093,188.1951,139.0625"/>
  <path fill="none" stroke="#8d8d8d" transform="translate(0, 13)" d="M149.324,104.8017C153.0888,101.8562,157.7715,99.3852,162.0131,97.1515C163.8325,96.1933,166.901,95.4281,168.1456,93.6627C169.8942,91.1824,168.4669,85.9466,167.3196,83.5915C164.0043,76.786,157.3173,66.9726,148.2707,67.7136C143.2616,68.1238,137.8671,75.4022,137.8671,80.1755C137.8671,89.2874,141.8886,98.7246,149.6015,103.9253L149.324,104.8017z"/>
  <path fill="none" stroke="#8d8d8d" transform="translate(0, 13)" d="M31.3854,82.0312C31.0244,87.4084,32.3533,93.2084,32.7409,98.5606C33.4568,108.4492,33.784,118.3535,33.915,128.2705C34.1193,143.7383,34.0829,159.1034,34.8373,174.5445C35.0337,178.5656,34.4754,182.9758,35.6028,186.9135"/>
  <path fill="none" stroke="#8d8d8d" transform="translate(0, 13)" d="M35.2212,147.5275C38.6484,142.6338,44.9699,139.1349,49.399,135.2671C57.4701,128.2185,65.5566,120.7019,70.9908,111.3494"/>
  <path fill="none" stroke="#8d8d8d" transform="translate(0, 13)" d="M31.2948,116.911C28.4705,106.4562,21.6266,98.7497,17.4796,88.9517"/>
  <path fill="none" stroke="#8d8d8d" transform="translate(0, 13)" d="M29.129,157.6122C26.899,157.1737,24.3706,154.618,22.4402,153.4462C18.6355,151.1366,13.8786,149.5097,10.7663,146.2158C7.2656,142.5107,5.9986,137.6578,3.3556,133.4505C0.1167,128.2947,-4.4307,123.4802,-6.1011,117.483C-8.9295,107.3285,-8.2573,96.849,-6.8152,86.5766C-3.8755,65.6362,3.013,43.183,25.188,35.7987C28.3501,34.7457,31.8592,33.6945,35.2077,33.4874C40.4361,33.1641,45.5247,33.7429,50.5328,35.1607C52.1347,35.6142,55.5539,36.4012,56.4839,38.0899C61.0727,46.4216,61.7576,57.097,68.2542,64.3065C72.2362,68.7255,77.1738,72.2786,81.3037,76.5894C89.8426,85.5023,96.87,97.6025,95.3651,110.4831C94.7394,115.8384,91.9659,121.7171,89.5718,126.5054C87.1599,131.3292,85.1703,136.4398,81.8253,140.7358C76.026,148.1839,68.6246,153.7291,60.6554,158.6687C55.7095,161.7344,49.8644,162.5499,44.7215,165.1213"/>
  <path fill="none" stroke="#8d8d8d" transform="translate(0, 13)" d="M99.1941,180.2662C99.1941,166.4842,98.9379,152.8129,98.3625,139.0558C98.0885,132.5052,97.9659,124.6947,94.6947,118.7713"/>
  <path fill="none" stroke="#8d8d8d" transform="translate(0, 13)" d="M98.0782,128.8626C100.0775,126.8633,101.2396,123.9664,102.7758,121.6265C106.4562,116.0205,110.1973,110.4458,113.7536,104.767"/>
  <path fill="none" stroke="#8d8d8d" transform="translate(0, 13)" d="M95.9818,149.3061C92.769,146.5479,89.0565,144.3905,85.6465,141.8763"/>
  <path fill="none" stroke="#8d8d8d" transform="translate(0, 13)" d="M107.1275,158.08C111.8928,155.7177,117.9111,157.6683,122.5969,154.1032C127.4493,150.4114,129.7367,143.831,131.6384,138.3607C134.3416,130.5847,133.9172,123.0075,133.9172,114.8717C133.9172,106.5277,134.3385,98.0615,133.7572,89.7385C133.0338,79.3819,125.6449,70.879,118.3527,64.0871C116.5083,62.3693,114.6053,60.2664,112.2247,59.2664C110.5536,58.5645,109.0363,59.1448,107.3793,58.8445C105.1815,58.4461,103.2594,55.8691,100.8092,56.3754C98.4357,56.8658,96.4325,58.7693,94.6644,60.3163C89.0382,65.2392,85.4735,71.8846,80.2796,77.0785"/>
</svg>