<?xml version="1.0" encoding="UTF-8" standalone="no"?>
<!-- Created with Pixodesk SVG (https://pixodesk.com) -->
<svg xmlns="http://www.w3.org/2000/svg" viewBox="0 0 200 200" text-rendering="geometricPrecision" shape-rendering="geometricPrecision" fill="none" stroke-width="9">
  <!-- Background removed for transparency -->
  <path fill="none" stroke="#777777" stroke-width="9" d="M123.1076,3.4887C123.1076,10.3905,123.9498,17.4931,122.7674,24.3341C118.0329,51.726,101.5384,75.7634,75.2857,90.5456C69.7109,93.6846,64.3008,97.4338,57.9839,99.3553C47.4187,102.569,35.0721,105.6964,24.0294,106.9148C16.9809,107.6924,9.893,106.9593,2.8719,107.8111"/>
  <path fill="none" stroke="#777777" d="M27.82,140.0982C28.3108,145.0914,30.6396,149.8488,32.1059,154.5977C34.0953,161.0407,35.5827,167.504,38.7538,173.4743"/>
  <path fill="none" stroke="#777777" d="M95.2078,101.9581C102.9563,109.7609,112.1085,115.5567,121.4288,121.2526C124.6715,123.2342,128.0267,126.2492,131.7754,127.0737"/>
  <path fill="none" stroke="#777777" d="M133.836,71.2289C136.1106,70.1013,141.4774,72.3374,143.5114,72.7996C151.8128,74.6858,160.6666,78.2554,169.1051,78.8101"/>
  <path fill="none" stroke="#777777" d="M151.211,24.6853C161.1336,24.6853,171.7764,24.1698,181.5842,25.7844"/>
  <path fill="none" stroke="#777777" d="M66.724,130.9089C74.1185,139.2884,82.6302,152.9107,93.9977,155.7915"/>
  <path fill="none" stroke="#b93a3a" d="M6.179,25.5768C10.8979,20.8578,12.8636,14.7615,18.0334,10.5837C19.13,9.6975,20.144,8.7118,21.2458,7.832C22.3972,6.9125,24.6458,3.9462,24.9317,5.3917C25.4191,7.8562,23.0673,10.0622,21.9697,12.3219C18.4606,19.5464,14.9295,26.7412,11.3846,33.9483C9.6635,37.4473,9.4881,38.0486,8.4854,41.5432C8.2281,42.44,7.9752,43.3391,7.7706,44.2494C7.6855,44.6281,7.307,45.6368,7.6176,45.4039C12.2244,41.9512,16.5768,34.1225,20.3963,29.6988C24.6642,24.7558,25.3705,24.1842,29.4681,19.0035C31.8078,16.0453,34.1032,13.0661,36.4602,10.1211C37.3472,9.0128,38.1784,7.9694,38.9924,6.8067C39.3568,6.2863,40.0918,4.7177,40.2116,5.3417C40.8884,8.8654,37.2408,17.8547,36.3063,20.8528C32.3454,33.5594,24.7011,45.6927,17.59,56.865C15.2459,60.5477,12.6328,64.019,10.4121,67.7743C10.318,67.9335,8.1224,70.8861,8.3634,71.3682C8.5194,71.6803,8.7537,70.7895,8.9379,70.4932C9.4773,69.6259,9.9314,68.7044,10.515,67.8662C11.325,66.7028,12.2325,65.6101,13.1119,64.4981C16.4726,60.2488,20.0138,56.5842,23.6588,52.5353C33.2741,41.8546,41.9675,30.0625,50.7676,18.7012C53.6435,14.9883,56.9093,11.2465,60.2327,7.9231C61.4757,6.6801,62.6295,5.3604,63.8321,4.0796C64.2325,3.6532,64.6592,3.2496,65.1115,2.8786C65.3262,2.7025,65.8207,2.0827,65.7579,2.3532C64.5553,7.5402,60.7623,13.1969,58.2805,17.8362C49.4335,34.3738,37.8373,49.7534,26.8621,64.9024C22.6874,70.6646,18.6076,76.5163,14.3193,82.1928C12.5468,84.5391,10.74,86.8922,8.9152,89.2022C8.8737,89.2547,6.9,91.7605,7.1323,91.8828C8.0635,92.3733,8.8746,90.6994,9.7784,90.1601C10.7609,89.5738,11.7279,88.9609,12.7231,88.3964C17.0226,85.9573,21.5131,83.9902,25.8149,81.5418C45.7102,70.218,59.399,50.7574,74.8816,34.2616C80.1546,28.6435,85.078,22.7877,90.5376,17.3281C92.3018,15.5639,94.013,13.6831,95.6148,11.7774C96.1026,11.1971,96.6299,10.6504,97.1664,10.1147C97.3046,9.9768,97.6594,9.5222,97.5816,9.7014C93.4945,19.1119,87.1886,27.9031,81.7289,36.5343C75.9001,45.7492,70.2627,55.1046,63.8786,63.9554C57.699,72.5227,49.3797,80.3942,44.5795,89.8733C44.2916,90.4417,45.5393,89.0332,46.0473,88.6486C47.6237,87.4551,49.2219,86.2898,50.7731,85.0638C55.8573,81.045,61.3995,77.8361,66.4745,73.803C80.0649,63.0028,93.7769,50.8939,104.143,36.822"/>
</svg>
